<?xml version="1.0" encoding="UTF-8" standalone="no"?>
<!-- Created with Inkscape (http://www.inkscape.org/) -->

<svg
   xmlns:dc="http://purl.org/dc/elements/1.1/"
   xmlns:cc="http://creativecommons.org/ns#"
   xmlns:rdf="http://www.w3.org/1999/02/22-rdf-syntax-ns#"
   xmlns:svg="http://www.w3.org/2000/svg"
   xmlns="http://www.w3.org/2000/svg"
   xmlns:sodipodi="http://sodipodi.sourceforge.net/DTD/sodipodi-0.dtd"
   xmlns:inkscape="http://www.inkscape.org/namespaces/inkscape"
   width="480"
   height="640"
   id="svg2"
   version="1.1"
   inkscape:version="0.48.2 r9819"
   sodipodi:docname="replicant-splash.svg"
   inkscape:export-filename="/home/paulk/Bureau/gta04.png"
   inkscape:export-xdpi="90"
   inkscape:export-ydpi="90">
  <defs
     id="defs4">
    <inkscape:perspective
       id="perspective9"
       inkscape:persp3d-origin="372.04724 : 350.78739 : 1"
       inkscape:vp_z="744.09448 : 526.18109 : 1"
       inkscape:vp_y="0 : 1000 : 0"
       inkscape:vp_x="0 : 526.18109 : 1"
       sodipodi:type="inkscape:persp3d" />
    <inkscape:perspective
       id="perspective9-6"
       inkscape:persp3d-origin="372.04724 : 350.78739 : 1"
       inkscape:vp_z="744.09448 : 526.18109 : 1"
       inkscape:vp_y="0 : 1000 : 0"
       inkscape:vp_x="0 : 526.18109 : 1"
       sodipodi:type="inkscape:persp3d" />
  </defs>
  <sodipodi:namedview
     id="base"
     pagecolor="#ffffff"
     bordercolor="#666666"
     borderopacity="1.0"
     inkscape:pageopacity="0.0"
     inkscape:pageshadow="2"
     inkscape:zoom="0.35355339"
     inkscape:cx="451.35835"
     inkscape:cy="284.6847"
     inkscape:document-units="px"
     inkscape:current-layer="layer1"
     showgrid="false"
     inkscape:window-width="1680"
     inkscape:window-height="1000"
     inkscape:window-x="0"
     inkscape:window-y="25"
     inkscape:window-maximized="1"
     showguides="true"
     inkscape:guide-bbox="true" />
  <metadata
     id="metadata7">
    <rdf:RDF>
      <cc:Work
         rdf:about="">
        <dc:format>image/svg+xml</dc:format>
        <dc:type
           rdf:resource="http://purl.org/dc/dcmitype/StillImage" />
      </cc:Work>
    </rdf:RDF>
  </metadata>
  <g
     inkscape:label="Calque 1"
     inkscape:groupmode="layer"
     id="layer1"
     transform="translate(0,-412.36218)">
    <rect
       style="fill:#000000;fill-opacity:1;stroke:none"
       id="rect2985"
       width="480"
       height="640"
       x="0"
       y="412.36218" />
    <path
       style="fill:#77895c;fill-opacity:1;stroke:none;opacity:1"
       d="m 274.58363,514.45384 -1.78572,6.96429 136.69643,21.5625 4.73214,-9.33036 c 0,0 30.75004,4.66582 41.16072,7.45536 11.51839,11.51839 15.625,42.8199 15.625,64.41964 -8.77556,32.75083 -75.80357,298.70536 -75.80357,298.70536 l 5.625,10.84821 -6.97545,26.13281 -8.58259,2.38281 c 0,0 -4.42508,15.0076 -6.97544,24.52568 -6.53047,24.37204 -60.6406,74.43826 -76.97545,70.06136 -3.99595,-1.0707 -37.16449,-12.666 -56.43974,-19.9386 -10.53684,-20.87688 -4.83258,-10.2958 -4.83258,-10.2958 0,0 -43.20443,-16.45118 -67.41965,-24.80304 -0.45212,1.68732 -1.75892,1.40212 -2.34243,3.57983 -6.93701,-2.07975 -36.88823,-13.21763 -46.94551,-17.37608 -15.70517,-4.20819 -23.881653,-81.5733 -18.31473,-102.34933 25.46614,-95.04093 93.76863,-300.9165 97.41071,-314.50893 5.48875,-20.48431 36.36086,-44.14498 42.5,-42.5 10.92468,2.92726 29.64286,4.46429 29.64286,4.46429 z"
       id="rect2998"
       inkscape:connector-curvature="0"
       sodipodi:nodetypes="ccccccccccccccccccccc" />
    <path
       style="fill:#9b9d8f;fill-opacity:1;stroke:none"
       d="m 258.19498,536.07322 14.52094,-3.0936 133.34014,22.60217 6.9448,10.54347 -29.29443,115.15739 -10.73287,5.30331 -142.55777,-33.33504 -7.44988,-7.44987 z"
       id="rect3769"
       inkscape:connector-curvature="0"
       sodipodi:nodetypes="ccccccccc" />
    <path
       sodipodi:nodetypes="ccccc"
       inkscape:connector-curvature="0"
       id="path3794"
       d="m 268.5122,682.13246 -9.28572,-7.85714 -6.07143,20.71428 9.01786,9.375 z"
       style="fill:#100f14;fill-opacity:1;stroke:none" />
    <path
       style="opacity:0.5;fill:#9b9d8f;fill-opacity:1;stroke:none"
       d="m 224.40506,669.81103 -9.37501,-7.05357 -5.98214,19.28571 9.01786,10 z"
       id="path3796"
       inkscape:connector-curvature="0"
       sodipodi:nodetypes="ccccc" />
    <path
       style="fill:#100f14;fill-opacity:1;stroke:none"
       d="m 218.07469,692.0521 -9.03125,-10 44.125,12.9375 9,9.375 z"
       id="path3798"
       inkscape:connector-curvature="0"
       sodipodi:nodetypes="ccccc" />
    <path
       style="fill:#1d2325;fill-opacity:1;stroke:none"
       d="m 214.94077,662.4896 44.28571,11.78572 -6.07143,20.71428 -44.28571,-12.5 z"
       id="rect3791"
       inkscape:connector-curvature="0"
       sodipodi:nodetypes="ccccc" />
    <path
       sodipodi:nodetypes="cccscc"
       inkscape:connector-curvature="0"
       id="path3813"
       d="m 214.0942,686.34525 9.08533,2.615 -1.46563,4.92071 c 0,0 -2.95713,5.7099 -6.46525,4.7699 -2.32055,-0.62179 -2.26154,-7.20833 -2.26154,-7.20833 z"
       style="fill:#b7a049;fill-opacity:1;stroke:none" />
    <path
       style="fill:#b7a049;fill-opacity:1;stroke:none"
       d="m 227.09991,690.13332 9.08533,2.615 -1.46563,4.92071 c 0,0 -2.95713,5.7099 -6.46525,4.7699 -2.32055,-0.62179 -2.26154,-7.20833 -2.26154,-7.20833 z"
       id="path3815"
       inkscape:connector-curvature="0"
       sodipodi:nodetypes="cccscc" />
    <path
       sodipodi:nodetypes="cccscc"
       inkscape:connector-curvature="0"
       id="path3817"
       d="m 240.23189,693.79512 9.08533,2.615 -1.46563,4.92071 c 0,0 -2.95713,5.7099 -6.46525,4.7699 -2.32055,-0.62179 -2.26154,-7.20833 -2.26154,-7.20833 z"
       style="fill:#b7a049;fill-opacity:1;stroke:none" />
    <path
       style="opacity:1;fill:#cccccc;fill-opacity:1;stroke:none"
       d="m 305.97773,869.70878 -2.081,-4.60836 11.41352,-42.64838 75.91351,21.72661 -11.71149,44.35162 -29.96148,-8.52339 -8.58262,4.62122 -26.33262,-7.25378 -0.83262,3.49622 -8.58262,-2.87878 z"
       id="path4310"
       inkscape:connector-curvature="0"
       sodipodi:nodetypes="ccccccccccc" />
    <path
       sodipodi:nodetypes="ccccccc"
       inkscape:connector-curvature="0"
       id="path3841"
       d="m 197.20311,705.47936 107.17963,25.86042 -66.14645,229.30447 -92.73353,-33.68786 17.99303,-64.66708 -11.89634,-3.58355 z"
       style="opacity:1;fill:#77895c;fill-opacity:1;stroke:#c7b474;stroke-width:3;stroke-miterlimit:4;stroke-opacity:1;stroke-dasharray:none" />
    <path
       style="fill:#1a1a1a;fill-opacity:1;stroke:none"
       d="m 177.08363,796.77532 60.66569,17.85715 -19.4157,61.78571 -58.75,-17.85715 z"
       id="rect3791-5"
       inkscape:connector-curvature="0"
       sodipodi:nodetypes="ccccc" />
    <path
       sodipodi:nodetypes="ccccc"
       inkscape:connector-curvature="0"
       id="path3837"
       d="m 164.43134,865.10855 60.66569,17.85715 -19.95141,63.39285 -58.21429,-19.46429 z"
       style="fill:#1a1a1a;fill-opacity:1;stroke:none" />
    <path
       style="fill:#1a1a1a;fill-opacity:1;stroke:none"
       d="m 238.63168,752.62222 39.32249,11.5747 -12.57503,40.3759 -38.09067,-11.90214 z"
       id="path3839"
       inkscape:connector-curvature="0"
       sodipodi:nodetypes="ccccc" />
    <path
       sodipodi:nodetypes="ccccc"
       inkscape:connector-curvature="0"
       id="path3851"
       d="m 311.75668,685.12222 9.05463,2.46756 -2.30717,9.03661 -9.1621,-2.52714 z"
       style="fill:#e6d189;fill-opacity:1;stroke:none" />
    <path
       style="fill:#e6d189;fill-opacity:1;stroke:none"
       d="m 308.09597,699.22936 9.05463,2.46756 -2.30717,9.03661 -9.1621,-2.52714 z"
       id="path3853"
       inkscape:connector-curvature="0"
       sodipodi:nodetypes="ccccc" />
    <g
       id="g3879"
       transform="translate(41.012193,22.627417)">
      <path
         sodipodi:nodetypes="ccccc"
         inkscape:connector-curvature="0"
         id="path3853-0"
         d="m 267.61751,706.87795 8.78677,2.37828 -3.11074,11.62589 -8.8496,-2.43785 z"
         style="fill:#7e654b;fill-opacity:1;stroke:none" />
      <path
         style="fill:#b3c0ba;fill-opacity:1;stroke:none"
         d="m 268.06394,704.95831 8.78677,2.37828 -0.44222,1.91886 -8.80272,-2.35582 z"
         id="path3875"
         inkscape:connector-curvature="0"
         sodipodi:nodetypes="ccccc" />
      <path
         sodipodi:nodetypes="ccccc"
         inkscape:connector-curvature="0"
         id="path3877"
         d="m 264.43894,718.44268 8.85708,2.42516 -0.47347,1.78605 -8.92772,-2.37145 z"
         style="fill:#b3c0ba;fill-opacity:1;stroke:none" />
    </g>
    <g
       id="g3884"
       transform="matrix(0,1,-1,0,1031.555,449.26696)"
       inkscape:transform-center-x="-8.84779"
       inkscape:transform-center-y="12.374369">
      <path
         style="fill:#7e654b;fill-opacity:1;stroke:none"
         d="m 267.61751,706.87795 8.78677,2.37828 -3.11074,11.62589 -8.8496,-2.43785 z"
         id="path3886"
         inkscape:connector-curvature="0"
         sodipodi:nodetypes="ccccc" />
      <path
         sodipodi:nodetypes="ccccc"
         inkscape:connector-curvature="0"
         id="path3888"
         d="m 268.06394,704.95831 8.78677,2.37828 -0.44222,1.91886 -8.80272,-2.35582 z"
         style="fill:#b3c0ba;fill-opacity:1;stroke:none" />
      <path
         style="fill:#b3c0ba;fill-opacity:1;stroke:none"
         d="m 264.43894,718.44268 8.85708,2.42516 -0.47347,1.78605 -8.92772,-2.37145 z"
         id="path3890"
         inkscape:connector-curvature="0"
         sodipodi:nodetypes="ccccc" />
    </g>
    <g
       id="g3892"
       transform="translate(32.526912,78.312076)">
      <path
         style="fill:#7e654b;fill-opacity:1;stroke:none"
         d="m 267.61751,706.87795 8.78677,2.37828 -3.11074,11.62589 -8.8496,-2.43785 z"
         id="path3894"
         inkscape:connector-curvature="0"
         sodipodi:nodetypes="ccccc" />
      <path
         sodipodi:nodetypes="ccccc"
         inkscape:connector-curvature="0"
         id="path3896"
         d="m 268.06394,704.95831 8.78677,2.37828 -0.44222,1.91886 -8.80272,-2.35582 z"
         style="fill:#b3c0ba;fill-opacity:1;stroke:none" />
      <path
         style="fill:#b3c0ba;fill-opacity:1;stroke:none"
         d="m 264.43894,718.44268 8.85708,2.42516 -0.47347,1.78605 -8.92772,-2.37145 z"
         id="path3898"
         inkscape:connector-curvature="0"
         sodipodi:nodetypes="ccccc" />
    </g>
    <g
       inkscape:transform-center-y="12.374369"
       inkscape:transform-center-x="-8.84779"
       transform="matrix(0,1,-1,0,1117.8221,382.09182)"
       id="g3900">
      <path
         sodipodi:nodetypes="ccccc"
         inkscape:connector-curvature="0"
         id="path3902"
         d="m 267.61751,706.87795 8.78677,2.37828 -3.11074,11.62589 -8.8496,-2.43785 z"
         style="fill:#7e654b;fill-opacity:1;stroke:none" />
      <path
         style="fill:#b3c0ba;fill-opacity:1;stroke:none"
         d="m 268.06394,704.95831 8.78677,2.37828 -0.44222,1.91886 -8.80272,-2.35582 z"
         id="path3904"
         inkscape:connector-curvature="0"
         sodipodi:nodetypes="ccccc" />
      <path
         sodipodi:nodetypes="ccccc"
         inkscape:connector-curvature="0"
         id="path3906"
         d="m 264.43894,718.44268 8.85708,2.42516 -0.47347,1.78605 -8.92772,-2.37145 z"
         style="fill:#b3c0ba;fill-opacity:1;stroke:none" />
    </g>
    <path
       style="fill:#bcc5c0;fill-opacity:1;stroke:none"
       d="m 421.89488,559.87222 15.66643,4.24185 -3.9919,15.53438 -15.85237,-4.34427 z"
       id="path3908"
       inkscape:connector-curvature="0"
       sodipodi:nodetypes="ccccc" />
    <path
       sodipodi:type="arc"
       style="fill:#000000;fill-opacity:1;stroke:none"
       id="path3910"
       sodipodi:cx="386.5"
       sodipodi:cy="132.75"
       sodipodi:rx="4.875"
       sodipodi:ry="4.5"
       d="m 391.375,132.75 c 0,2.48528 -2.18261,4.5 -4.875,4.5 -2.69239,0 -4.875,-2.01472 -4.875,-4.5 0,-2.48528 2.18261,-4.5 4.875,-4.5 2.69239,0 4.875,2.01472 4.875,4.5 z"
       transform="matrix(0.87179487,0,0,0.91666667,91.313475,446.4271)" />
    <path
       sodipodi:type="arc"
       style="fill:none;stroke:#c7b474;stroke-width:14.94468307;stroke-miterlimit:4;stroke-opacity:1;stroke-dasharray:none"
       id="path3912"
       sodipodi:cx="416.66266"
       sodipodi:cy="121.1604"
       sodipodi:rx="15.379573"
       sodipodi:ry="15.379573"
       d="m 432.04223,121.1604 c 0,8.4939 -6.88567,15.37957 -15.37957,15.37957 -8.4939,0 -15.37957,-6.88567 -15.37957,-15.37957 0,-8.4939 6.88567,-15.37957 15.37957,-15.37957 8.4939,0 15.37957,6.88567 15.37957,15.37957 z"
       transform="matrix(0.58164139,-0.08496457,0,0.58213408,211.26074,530.03557)" />
    <path
       transform="matrix(0.55631664,-0.07632809,0,0.52296135,-0.92601088,497.36725)"
       d="m 432.04223,121.1604 c 0,8.4939 -6.88567,15.37957 -15.37957,15.37957 -8.4939,0 -15.37957,-6.88567 -15.37957,-15.37957 0,-8.4939 6.88567,-15.37957 15.37957,-15.37957 8.4939,0 15.37957,6.88567 15.37957,15.37957 z"
       sodipodi:ry="15.379573"
       sodipodi:rx="15.379573"
       sodipodi:cy="121.1604"
       sodipodi:cx="416.66266"
       id="path3914"
       style="fill:none;stroke:#c7b474;stroke-width:14.94468307;stroke-miterlimit:4;stroke-opacity:1;stroke-dasharray:none"
       sodipodi:type="arc" />
    <path
       sodipodi:type="arc"
       style="fill:none;stroke:#c7b474;stroke-width:14.94468307;stroke-miterlimit:4;stroke-opacity:1;stroke-dasharray:none"
       id="path3916"
       sodipodi:cx="416.66266"
       sodipodi:cy="121.1604"
       sodipodi:rx="15.379573"
       sodipodi:ry="15.379573"
       d="m 432.04223,121.1604 c 0,8.4939 -6.88567,15.37957 -15.37957,15.37957 -8.4939,0 -15.37957,-6.88567 -15.37957,-15.37957 0,-8.4939 6.88567,-15.37957 15.37957,-15.37957 8.4939,0 15.37957,6.88567 15.37957,15.37957 z"
       transform="matrix(0.61109405,-0.04489984,0,0.57037821,8.172341,960.83602)" />
    <path
       transform="matrix(0.28120985,0.03492075,0,0.26247346,18.904212,914.84428)"
       d="m 432.04223,121.1604 c 0,8.4939 -6.88567,15.37957 -15.37957,15.37957 -8.4939,0 -15.37957,-6.88567 -15.37957,-15.37957 0,-8.4939 6.88567,-15.37957 15.37957,-15.37957 8.4939,0 15.37957,6.88567 15.37957,15.37957 z"
       sodipodi:ry="15.379573"
       sodipodi:rx="15.379573"
       sodipodi:cy="121.1604"
       sodipodi:cx="416.66266"
       id="path3918"
       style="fill:none;stroke:#c7b474;stroke-width:14.94468307;stroke-miterlimit:4;stroke-opacity:1;stroke-dasharray:none"
       sodipodi:type="arc" />
    <path
       sodipodi:nodetypes="ccccc"
       inkscape:connector-curvature="0"
       id="path3920"
       d="m 390.00668,681.93472 15.19749,4.0122 -3.76253,14.6884 -15.15317,-3.71464 z"
       style="fill:#1a1a1a;fill-opacity:1;stroke:none" />
    <path
       style="fill:#1a1a1a;fill-opacity:1;stroke:none"
       d="m 437.63168,583.05972 23.69749,6.1372 -5.32503,19.1884 -23.46567,-6.46464 z"
       id="path3922"
       inkscape:connector-curvature="0"
       sodipodi:nodetypes="ccccc" />
    <g
       id="g3924"
       transform="matrix(0,1.0818671,-1,0,944.58093,289.77684)"
       inkscape:transform-center-x="-8.84779"
       inkscape:transform-center-y="13.387427">
      <path
         style="fill:#7e654b;fill-opacity:1;stroke:none"
         d="m 267.61751,706.87795 8.78677,2.37828 -3.11074,11.62589 -8.8496,-2.43785 z"
         id="path3926"
         inkscape:connector-curvature="0"
         sodipodi:nodetypes="ccccc" />
      <path
         sodipodi:nodetypes="ccccc"
         inkscape:connector-curvature="0"
         id="path3928"
         d="m 268.06394,704.95831 8.78677,2.37828 -0.44222,1.91886 -8.80272,-2.35582 z"
         style="fill:#b3c0ba;fill-opacity:1;stroke:none" />
      <path
         style="fill:#b3c0ba;fill-opacity:1;stroke:none"
         d="m 264.43894,718.44268 8.85708,2.42516 -0.47347,1.78605 -8.92772,-2.37145 z"
         id="path3930"
         inkscape:connector-curvature="0"
         sodipodi:nodetypes="ccccc" />
    </g>
    <g
       id="g4203"
       transform="translate(-654.78087,-113.13708)">
      <g
         transform="matrix(0.58682756,0,0,0.58682756,172.14426,488.63991)"
         id="g4096">
        <path
           style="fill:#ff0000;fill-opacity:1;fill-rule:evenodd;stroke:#ffffff;stroke-width:4;stroke-linecap:butt;stroke-linejoin:miter;stroke-miterlimit:4;stroke-opacity:1;stroke-dasharray:none"
           d="m 1081.5102,119.73475 c -1.8483,0.13038 -3.6299,1.36782 -4.5625,5 -1.9134,7.45248 5.9567,35.36035 9.75,48.03125 -6.3609,0.42622 -12.4315,1.07677 -18.2187,1.96875 L 1030.9477,146.016 c 0,0 -11.1187,-0.95401 -7.4375,8.34375 2.0323,5.13294 14.4439,15.85956 25.2188,24.53125 -102.82462,27.91387 -99.72038,133.70992 -99.18752,133.8125 l 312.21822,0 c 0,0 -10e-4,-140.5 -158.437,-140.5 -0.2097,0 -0.4158,-4.9e-4 -0.625,0 l -14.8125,-49.8125 c 0,0 -3.2945,-2.87354 -6.375,-2.65625 z"
           id="path2410"
           inkscape:connector-curvature="0"
           sodipodi:nodetypes="sscccscccsccs" />
        <path
           style="fill:#ffffff;fill-opacity:1;fill-rule:evenodd;stroke:#ffffff;stroke-width:1.48985171px;stroke-linecap:butt;stroke-linejoin:miter;stroke-opacity:1"
           d="m 1196.2614,207.61906 c 0,0 14.7927,0 14.7927,15.00507 0,15.00507 -14.7927,15.00507 -14.7927,15.00507 0,0 -14.7927,0 -14.7927,-15.00507 0,-15.00507 15.5804,-14.50676 14.7927,-15.00507 z"
           id="path2422"
           inkscape:connector-curvature="0" />
        <path
           style="fill:none;stroke:#ffffff;stroke-width:4;stroke-linecap:butt;stroke-linejoin:miter;stroke-miterlimit:4;stroke-opacity:1;stroke-dasharray:none"
           d="m 1119.4636,245.3185 c 60,60 140,60 140,60 l 0,0"
           id="path2473"
           inkscape:connector-curvature="0" />
        <path
           style="fill:#ff0000;fill-opacity:1;fill-rule:evenodd;stroke:#ffffff;stroke-width:4;stroke-linecap:butt;stroke-linejoin:miter;stroke-miterlimit:4;stroke-opacity:1;stroke-dasharray:none"
           d="M 924.28569,455.49759 1081.907,391.81447 c 0,0 24.0694,-20.51003 12.8312,-48.32555 -11.2382,-27.81553 -42.7995,-24.66042 -42.7995,-24.66042 l -157.62152,62.49439 c 0,0 -24.06947,20.51003 -12.83128,48.32555 11.23821,27.81552 43.62678,26.38277 42.79979,25.84915 z"
           id="path4295"
           inkscape:connector-curvature="0"
           sodipodi:nodetypes="ccsccsc" />
        <path
           style="fill:#ff0000;fill-opacity:1;fill-rule:evenodd;stroke:#ffffff;stroke-width:4;stroke-linecap:butt;stroke-linejoin:miter;stroke-miterlimit:4;stroke-opacity:1;stroke-dasharray:none"
           d="M 1081.8537,493.64262 964.40374,616.54704 c 0,0 -13.49681,28.59784 8.19223,49.32432 21.689,20.72647 49.64513,5.94627 49.64513,5.94627 l 117.45,-122.9044 c 0,0 13.4968,-28.59785 -8.1922,-49.32432 -21.689,-20.72648 -50.6185,-6.0923 -49.6452,-5.94629 z"
           id="path2449"
           inkscape:connector-curvature="0" />
        <path
           style="fill:#000000;fill-opacity:1;stroke:#ffffff;stroke-width:4;stroke-miterlimit:4;stroke-opacity:1;stroke-dasharray:none"
           d="m 956.79148,615.60975 c -11.04569,0 -20,8.95431 -20,20 0,11.04569 8.95431,20 20,20 0,11.04569 8.95431,20 20,20 0,11.04569 8.95431,20 20,20 11.04572,0 20.00002,-8.95431 20.00002,-20 0,-11.04569 -8.9543,-20 -20.00002,-20 0,-11.04569 -8.95431,-20 -20,-20 0,-11.04569 -8.95431,-20 -20,-20 z"
           id="path2491"
           inkscape:connector-curvature="0" />
        <path
           style="fill:#ff0000;fill-opacity:1;fill-rule:evenodd;stroke:#ffffff;stroke-width:4;stroke-linecap:butt;stroke-linejoin:miter;stroke-miterlimit:4;stroke-opacity:1;stroke-dasharray:none"
           d="m 949.02973,317.8045 c -0.0517,0.4163 -3.6e-4,201.12458 -3.7e-4,241.12456 0,40 60.00004,40.00002 60.00004,40 0,0 100,2e-5 100,0 l 0,-1.15625 c 19.887,10e-6 93.4062,0 93.4062,0 0,2e-5 59.3241,-0.004 59.3241,-40 10e-5,-39.99559 0.055,-239.5525 0,-239.96875 -107.8986,3.9e-4 -214.9365,4.4e-4 -312.72997,4.4e-4 z"
           id="path2441"
           inkscape:connector-curvature="0"
           sodipodi:nodetypes="csccccscc" />
        <path
           style="fill:#ff0000;fill-opacity:1;fill-rule:evenodd;stroke:#ffffff;stroke-width:4;stroke-linecap:butt;stroke-linejoin:miter;stroke-miterlimit:4;stroke-opacity:1;stroke-dasharray:none"
           d="m 1103.0052,506.50197 0,170 c 0,0 10,30 40,30 30,0 40,-30 40,-30 l 0,-170 c 0,0 -10,-30 -40,-30 -30,0 -40.8045,30.56688 -40,30 z"
           id="path2447"
           inkscape:connector-curvature="0" />
        <path
           style="fill:#000000;fill-opacity:1;stroke:#ffffff;stroke-width:4;stroke-miterlimit:4;stroke-opacity:1;stroke-dasharray:none"
           d="m 1112.9165,680.79725 c -11.0457,0 -20,8.95431 -20,20 0,11.04569 8.9543,20 20,20 6.5505,0 12.3207,-3.16429 15.9687,-8.03125 3.6474,4.87555 9.474,8.03125 16.0313,8.03125 5.9834,0 11.3036,-2.6484 14.9687,-6.8125 3.6655,4.17312 9.0404,6.8125 15.0313,6.8125 11.0457,0 20,-8.95431 20,-20 0,-11.04569 -8.9543,-20 -20,-20 -5.9882,0 -11.3659,2.6426 -15.0313,6.8125 -3.665,-4.16066 -8.9882,-6.8125 -14.9687,-6.8125 -6.5573,0 -12.3839,3.1557 -16.0313,8.03125 -3.648,-4.86696 -9.4182,-8.03125 -15.9687,-8.03125 z"
           id="path2493"
           inkscape:connector-curvature="0" />
        <path
           style="fill:#ff0000;fill-opacity:1;fill-rule:evenodd;stroke:#ffffff;stroke-width:4;stroke-linecap:butt;stroke-linejoin:miter;stroke-miterlimit:4;stroke-opacity:1;stroke-dasharray:none"
           d="m 1126.093,410.11696 157.6213,63.68312 c 0,0 31.5616,1.96637 42.7998,-25.84915 11.2382,-27.81552 -12.8313,-48.32556 -12.8313,-48.32556 l -157.6212,-63.68311 c 0,0 -31.5616,-1.96637 -42.7998,25.84915 -11.2382,27.81552 13.0555,49.28388 12.8312,48.32555 z"
           id="path2443"
           inkscape:connector-curvature="0" />
        <path
           sodipodi:type="arc"
           style="fill:#ffffff;fill-opacity:1;stroke:none"
           id="path3275"
           sodipodi:cx="-476.85342"
           sodipodi:cy="342.14471"
           sodipodi:rx="9.4990721"
           sodipodi:ry="9.4990721"
           d="m -467.35435,342.14471 c 0,5.2462 -4.25288,9.49908 -9.49907,9.49908 -5.2462,0 -9.49908,-4.25288 -9.49908,-9.49908 0,-5.24619 4.25288,-9.49907 9.49908,-9.49907 5.24619,0 9.49907,4.25288 9.49907,9.49907 z"
           transform="matrix(0.5263672,0,0,0.5263672,1206.0941,455.68487)" />
        <path
           sodipodi:type="arc"
           style="fill:#ffffff;fill-opacity:1;stroke:none"
           id="path3282"
           sodipodi:cx="-476.85342"
           sodipodi:cy="342.14471"
           sodipodi:rx="9.4990721"
           sodipodi:ry="9.4990721"
           d="m -467.35435,342.14471 c 0,5.2462 -4.25288,9.49908 -9.49907,9.49908 -5.2462,0 -9.49908,-4.25288 -9.49908,-9.49908 0,-5.24619 4.25288,-9.49907 9.49908,-9.49907 5.24619,0 9.49907,4.25288 9.49907,9.49907 z"
           transform="matrix(0.5263672,0,0,0.5263672,1227.7214,477.45274)" />
        <path
           sodipodi:type="arc"
           style="fill:#ffffff;fill-opacity:1;stroke:none"
           id="path3298"
           sodipodi:cx="-476.85342"
           sodipodi:cy="342.14471"
           sodipodi:rx="9.4990721"
           sodipodi:ry="9.4990721"
           d="m -467.35435,342.14471 c 0,5.2462 -4.25288,9.49908 -9.49907,9.49908 -5.2462,0 -9.49908,-4.25288 -9.49908,-9.49908 0,-5.24619 4.25288,-9.49907 9.49908,-9.49907 5.24619,0 9.49907,4.25288 9.49907,9.49907 z"
           transform="matrix(0.5263672,0,0,0.5263672,1362.3077,519.44903)" />
        <path
           sodipodi:type="arc"
           style="fill:#ffffff;fill-opacity:1;stroke:none"
           id="path3300"
           sodipodi:cx="-476.85342"
           sodipodi:cy="342.14471"
           sodipodi:rx="9.4990721"
           sodipodi:ry="9.4990721"
           d="m -467.35435,342.14471 c 0,5.2462 -4.25288,9.49908 -9.49907,9.49908 -5.2462,0 -9.49908,-4.25288 -9.49908,-9.49908 0,-5.24619 4.25288,-9.49907 9.49908,-9.49907 5.24619,0 9.49907,4.25288 9.49907,9.49907 z"
           transform="matrix(0.5263672,0,0,0.5263672,1396.7047,521.14847)" />
        <path
           sodipodi:type="arc"
           style="fill:#ffffff;fill-opacity:1;stroke:none"
           id="path3302"
           sodipodi:cx="-476.85342"
           sodipodi:cy="342.14471"
           sodipodi:rx="9.4990721"
           sodipodi:ry="9.4990721"
           d="m -467.35435,342.14471 c 0,5.2462 -4.25288,9.49908 -9.49907,9.49908 -5.2462,0 -9.49908,-4.25288 -9.49908,-9.49908 0,-5.24619 4.25288,-9.49907 9.49908,-9.49907 5.24619,0 9.49907,4.25288 9.49907,9.49907 z"
           transform="matrix(0.5263672,0,0,0.5263672,1424.701,519.24866)" />
        <path
           sodipodi:type="arc"
           style="fill:#ffffff;fill-opacity:1;stroke:none"
           id="path3284"
           sodipodi:cx="-476.85342"
           sodipodi:cy="342.14471"
           sodipodi:rx="9.4990721"
           sodipodi:ry="9.4990721"
           d="m -467.35435,342.14471 c 0,5.2462 -4.25288,9.49908 -9.49907,9.49908 -5.2462,0 -9.49908,-4.25288 -9.49908,-9.49908 0,-5.24619 4.25288,-9.49907 9.49908,-9.49907 5.24619,0 9.49907,4.25288 9.49907,9.49907 z"
           transform="matrix(0.5263672,0,0,0.5263672,1250.5192,496.45089)" />
      </g>
    </g>
    <path
       sodipodi:nodetypes="ccccc"
       inkscape:connector-curvature="0"
       id="path4222"
       d="m 131.63123,808.27323 22.1065,6.57914 -6.78344,24.09396 -21.83048,-5.89012 z"
       style="opacity:1;fill:#b3b3b3;fill-opacity:1;stroke:none" />
    <path
       sodipodi:type="arc"
       style="fill:#000000;fill-opacity:1;stroke:none"
       id="path4224"
       sodipodi:cx="138.54874"
       sodipodi:cy="411.29517"
       sodipodi:rx="1.016466"
       sodipodi:ry="1.016466"
       d="m 139.5652,411.29517 c 0,0.56137 -0.45508,1.01646 -1.01646,1.01646 -0.56138,0 -1.01647,-0.45509 -1.01647,-1.01646 0,-0.56138 0.45509,-1.01647 1.01647,-1.01647 0.56138,0 1.01646,0.45509 1.01646,1.01647 z"
       transform="matrix(1.5434782,0,0,1.5434782,-74.966768,189.25205)" />
    <path
       style="opacity:1;fill:#b3b3b3;fill-opacity:1;stroke:none"
       d="m 283.10799,983.9791 1.57129,0.38933 -9.41749,39.17737 -1.22189,-0.4429 z"
       id="path4228"
       inkscape:connector-curvature="0"
       sodipodi:nodetypes="ccccc" />
    <path
       sodipodi:nodetypes="ccccc"
       inkscape:connector-curvature="0"
       id="path4230"
       d="m 285.84803,985.08395 1.57129,0.38933 -9.41749,39.17742 -1.22189,-0.4429 z"
       style="opacity:1;fill:#b3b3b3;fill-opacity:1;stroke:none" />
    <path
       style="opacity:1;fill:#b3b3b3;fill-opacity:1;stroke:none"
       d="m 288.85323,986.01204 1.57129,0.38933 -9.41749,39.17743 -1.22189,-0.4429 z"
       id="path4232"
       inkscape:connector-curvature="0"
       sodipodi:nodetypes="ccccc" />
    <path
       sodipodi:nodetypes="ccccc"
       inkscape:connector-curvature="0"
       id="path4234"
       d="m 291.68167,987.16108 1.57129,0.38933 -9.41749,39.17739 -1.22189,-0.4429 z"
       style="opacity:1;fill:#b3b3b3;fill-opacity:1;stroke:none" />
    <path
       sodipodi:nodetypes="ccccc"
       inkscape:connector-curvature="0"
       id="path4238"
       d="m 294.28912,988.26594 1.57129,0.38933 -9.41749,39.17743 -1.22189,-0.4429 z"
       style="opacity:1;fill:#b3b3b3;fill-opacity:1;stroke:none" />
    <path
       style="opacity:1;fill:#b3b3b3;fill-opacity:1;stroke:none"
       d="m 297.4711,989.68015 1.57129,0.38933 -9.41749,39.17752 -1.22189,-0.4429 z"
       id="path4240"
       inkscape:connector-curvature="0"
       sodipodi:nodetypes="ccccc" />
    <path
       sodipodi:nodetypes="ccccc"
       inkscape:connector-curvature="0"
       id="path4242"
       d="m 300.34372,990.8292 1.57129,0.38933 -9.41749,39.17757 -1.22189,-0.4429 z"
       style="opacity:1;fill:#b3b3b3;fill-opacity:1;stroke:none" />
    <path
       style="opacity:1;fill:#b3b3b3;fill-opacity:1;stroke:none"
       d="m 302.99537,991.88986 1.57129,0.38933 -9.41749,39.17751 -1.22189,-0.4429 z"
       id="path4244"
       inkscape:connector-curvature="0"
       sodipodi:nodetypes="ccccc" />
    <path
       sodipodi:nodetypes="ccccc"
       inkscape:connector-curvature="0"
       id="path4246"
       d="m 305.7796,993.0389 1.57129,0.38933 -9.41749,39.17757 -1.22189,-0.4429 z"
       style="opacity:1;fill:#b3b3b3;fill-opacity:1;stroke:none" />
    <path
       style="opacity:1;fill:#b3b3b3;fill-opacity:1;stroke:none"
       d="m 308.78481,994.09957 1.57129,0.38933 -9.41749,39.1775 -1.22189,-0.4429 z"
       id="path4248"
       inkscape:connector-curvature="0"
       sodipodi:nodetypes="ccccc" />
    <path
       sodipodi:nodetypes="ccccc"
       inkscape:connector-curvature="0"
       id="path4250"
       d="m 311.48065,995.16023 1.57129,0.38933 -9.41749,39.17754 -1.22189,-0.4429 z"
       style="opacity:1;fill:#b3b3b3;fill-opacity:1;stroke:none" />
    <path
       style="opacity:1;fill:#b3b3b3;fill-opacity:1;stroke:none"
       d="m 314.26488,996.26508 1.57129,0.38933 -9.41749,39.17749 -1.22189,-0.4429 z"
       id="path4252"
       inkscape:connector-curvature="0"
       sodipodi:nodetypes="ccccc" />
    <path
       sodipodi:nodetypes="ccccc"
       inkscape:connector-curvature="0"
       id="path4254"
       d="m 316.96073,997.32574 1.57129,0.38933 -9.41749,39.17743 -1.22189,-0.4429 z"
       style="opacity:1;fill:#b3b3b3;fill-opacity:1;stroke:none" />
    <path
       sodipodi:nodetypes="ccccc"
       inkscape:connector-curvature="0"
       id="path4226"
       d="m 280.88131,993.03856 35.78696,13.78434 -5.50396,22.4332 -35.26224,-14.0236 z"
       style="fill:#1a1a1a;fill-opacity:1;stroke:none" />
    <path
       style="fill:#b3b3b3;fill-opacity:1;stroke:none"
       d="m 307.19947,922.88697 c 3.26798,-1.88677 4.10211,-0.15568 6.11695,0.16178 2.50903,0.39532 4.87346,1.43367 7.31019,2.15051 2.43673,0.71684 4.87345,1.43368 7.31018,2.15052 2.43673,0.71684 4.87346,1.43368 7.31019,2.15052 2.43673,0.71684 4.87346,1.43368 7.31019,2.15052 2.43673,0.71684 4.87345,1.43368 7.31018,2.15052 2.43673,0.71684 4.94369,1.2279 7.31019,2.15051 2.04085,0.79565 4.83815,0.98372 5.89598,2.90182 1.16516,2.11272 -0.31489,4.82698 -0.76184,7.19794 -0.50892,2.69968 -1.45071,5.29949 -2.17606,7.94924 -0.72535,2.64975 -1.45071,5.29949 -2.17606,7.94924 -0.72535,2.64975 -1.4507,5.2995 -2.17605,7.94925 -0.72535,2.64975 -1.45071,5.29949 -2.17606,7.94924 -0.72535,2.64975 -1.4507,5.29949 -2.17605,7.94924 -0.72535,2.64975 -1.21732,5.37473 -2.17605,7.94924 -0.75948,2.03945 -0.95361,4.76314 -2.81493,5.89081 -1.92451,1.16593 -4.52797,0.13745 -6.74619,-0.24033 -2.54159,-0.43285 -4.92337,-1.53251 -7.38506,-2.29876 -2.46169,-0.76625 -4.92337,-1.53251 -7.38506,-2.29876 -2.46169,-0.76625 -4.92337,-1.53251 -7.38506,-2.29876 -2.46169,-0.76626 -4.92337,-1.53251 -7.38506,-2.29877 -2.46169,-0.76625 -4.92337,-1.53251 -7.38506,-2.29876 -2.46169,-0.76625 -5.01497,-1.28402 -7.38506,-2.29876 -2.04128,-0.87396 -4.7937,-1.2685 -5.82256,-3.23626 -1.06537,-2.0376 0.25319,-4.60576 0.68843,-6.8635 0.5123,-2.65748 1.50062,-5.20066 2.25093,-7.80099 0.75031,-2.60033 1.50061,-5.20067 2.25092,-7.801 0.75031,-2.60033 1.50062,-5.20067 2.25093,-7.801 0.75031,-2.60033 1.50062,-5.20067 2.25093,-7.801 0.75031,-2.60033 1.50061,-5.20067 2.25092,-7.801 0.75031,-2.60033 1.17728,-5.31665 2.25093,-7.80099 0.89339,-2.06724 1.10034,-4.45905 3.44417,-5.81226 z"
       id="path4256"
       inkscape:connector-curvature="0"
       sodipodi:nodetypes="saaaaaaaaaaaaaaaaaaaaaaaaaaaaaaas" />
    <path
       transform="matrix(3.6340547,0,0,3.6340547,-195.9885,-554.84197)"
       d="m 139.5652,411.29517 c 0,0.56137 -0.45508,1.01646 -1.01646,1.01646 -0.56138,0 -1.01647,-0.45509 -1.01647,-1.01646 0,-0.56138 0.45509,-1.01647 1.01647,-1.01647 0.56138,0 1.01646,0.45509 1.01646,1.01647 z"
       sodipodi:ry="1.016466"
       sodipodi:rx="1.016466"
       sodipodi:cy="411.29517"
       sodipodi:cx="138.54874"
       id="path4262"
       style="fill:#000000;fill-opacity:1;stroke:none"
       sodipodi:type="arc" />
    <path
       sodipodi:type="arc"
       style="fill:#c7b474;fill-opacity:1;stroke:none"
       id="path4264"
       sodipodi:cx="138.54874"
       sodipodi:cy="411.29517"
       sodipodi:rx="1.016466"
       sodipodi:ry="1.016466"
       d="m 139.5652,411.29517 c 0,0.56137 -0.45508,1.01646 -1.01646,1.01646 -0.56138,0 -1.01647,-0.45509 -1.01647,-1.01646 0,-0.56138 0.45509,-1.01647 1.01647,-1.01647 0.56138,0 1.01646,0.45509 1.01646,1.01647 z"
       transform="matrix(10.52066,0,0,10.52066,-1127.6189,-3382.7693)" />
    <path
       style="opacity:1;fill:#b3b3b3;fill-opacity:1;stroke:none"
       d="m 337.88123,740.27323 c 26.95217,6.44305 53.90433,12.88609 80.8565,19.32914 l -1.57086,6.46099 8.67914,2.46099 -13.07086,49.71099 -5.32086,-0.78901 -8.70762,32.27747 -6.95762,2.52747 -78.70762,-21.72253 -5.20762,-7.47253 7.31436,-30.32074 -3.21782,-2.91038 13.28217,-46.41037 10.56436,2.42926 z"
       id="path4266"
       inkscape:connector-curvature="0"
       sodipodi:nodetypes="ccccccccccccccc" />
    <path
       sodipodi:nodetypes="ccccc"
       inkscape:connector-curvature="0"
       id="path4268"
       d="m 335.25623,766.02323 3.8565,-13.92086 -10.73521,-3.18765 -3.56064,14.42926 z"
       style="opacity:1;fill:#000000;fill-opacity:1;stroke:none" />
    <path
       style="opacity:1;fill:#000000;fill-opacity:1;stroke:none"
       d="m 415.50623,786.77323 3.8565,-13.92086 -10.73521,-3.18765 -3.56064,14.42926 z"
       id="path4270"
       inkscape:connector-curvature="0"
       sodipodi:nodetypes="ccccc" />
    <path
       sodipodi:nodetypes="ccccccccccc"
       inkscape:connector-curvature="0"
       id="path4272"
       d="m 403.63123,799.27323 8.05325,1.91457 0.55325,-2.58543 -15.36761,-4.34383 -4.43768,17.36609 15.80492,4.4599 1.67992,-6.16509 -3.32008,-0.66509 -1.15532,4.08963 -5.40533,-1.28538 z"
       style="opacity:1;fill:#000000;fill-opacity:1;stroke:none" />
    <path
       style="opacity:1;fill:#000000;fill-opacity:1;stroke:none"
       d="m 331.47644,779.86343 -8.99075,-2.43079 0.57175,-1.73368 15.36761,4.14891 -3.93732,15.43017 -15.05492,-3.90002 1.38258,-4.99022 2.50758,0.47452 -0.90718,3.0867 6.15533,1.53797 z"
       id="path4274"
       inkscape:connector-curvature="0"
       sodipodi:nodetypes="ccccccccccc" />
    <path
       sodipodi:nodetypes="sssss"
       inkscape:connector-curvature="0"
       id="path4276"
       d="m 337.19373,817.33573 c 14.29924,3.83147 27.8069,7.34269 39.419,10.45414 5.39908,1.44668 6.81859,-4.3915 1.51479,-5.81265 -13.30429,-3.56487 -27.16448,-7.22019 -39.43564,-10.50824 -4.69922,-1.25915 -6.84817,4.43322 -1.49815,5.86675 z"
       style="fill:#000000;fill-opacity:1;stroke:none" />
    <g
       inkscape:transform-center-y="8.8779104"
       inkscape:transform-center-x="-6.3477833"
       transform="matrix(0,0.71744357,-0.71744357,0,782.86449,621.83214)"
       id="g4278">
      <path
         sodipodi:nodetypes="ccccc"
         inkscape:connector-curvature="0"
         id="path4280"
         d="m 267.61751,706.87795 8.78677,2.37828 -3.11074,11.62589 -8.8496,-2.43785 z"
         style="fill:#7e654b;fill-opacity:1;stroke:none" />
      <path
         style="fill:#b3c0ba;fill-opacity:1;stroke:none"
         d="m 268.06394,704.95831 8.78677,2.37828 -0.44222,1.91886 -8.80272,-2.35582 z"
         id="path4282"
         inkscape:connector-curvature="0"
         sodipodi:nodetypes="ccccc" />
      <path
         sodipodi:nodetypes="ccccc"
         inkscape:connector-curvature="0"
         id="path4284"
         d="m 264.43894,718.44268 8.85708,2.42516 -0.47347,1.78605 -8.92772,-2.37145 z"
         style="fill:#b3c0ba;fill-opacity:1;stroke:none" />
    </g>
    <g
       id="g4286"
       transform="matrix(0,0.71744357,-0.71744357,0,780.86449,631.33214)"
       inkscape:transform-center-x="-6.3477833"
       inkscape:transform-center-y="8.8779104">
      <path
         style="fill:#7e654b;fill-opacity:1;stroke:none"
         d="m 267.61751,706.87795 8.78677,2.37828 -3.11074,11.62589 -8.8496,-2.43785 z"
         id="path4288"
         inkscape:connector-curvature="0"
         sodipodi:nodetypes="ccccc" />
      <path
         sodipodi:nodetypes="ccccc"
         inkscape:connector-curvature="0"
         id="path4290"
         d="m 268.06394,704.95831 8.78677,2.37828 -0.44222,1.91886 -8.80272,-2.35582 z"
         style="fill:#b3c0ba;fill-opacity:1;stroke:none" />
      <path
         style="fill:#b3c0ba;fill-opacity:1;stroke:none"
         d="m 264.43894,718.44268 8.85708,2.42516 -0.47347,1.78605 -8.92772,-2.37145 z"
         id="path4292"
         inkscape:connector-curvature="0"
         sodipodi:nodetypes="ccccc" />
    </g>
    <g
       inkscape:transform-center-y="6.3477684"
       inkscape:transform-center-x="8.8779154"
       transform="matrix(-0.71744357,0,0,-0.71744357,481.0004,1284.6448)"
       id="g4294">
      <path
         sodipodi:nodetypes="ccccc"
         inkscape:connector-curvature="0"
         id="path4296"
         d="m 267.61751,706.87795 8.78677,2.37828 -3.11074,11.62589 -8.8496,-2.43785 z"
         style="fill:#7e654b;fill-opacity:1;stroke:none" />
      <path
         style="fill:#b3c0ba;fill-opacity:1;stroke:none"
         d="m 268.06394,704.95831 8.78677,2.37828 -0.44222,1.91886 -8.80272,-2.35582 z"
         id="path4298"
         inkscape:connector-curvature="0"
         sodipodi:nodetypes="ccccc" />
      <path
         sodipodi:nodetypes="ccccc"
         inkscape:connector-curvature="0"
         id="path4300"
         d="m 264.43894,718.44268 8.85708,2.42516 -0.47347,1.78605 -8.92772,-2.37145 z"
         style="fill:#b3c0ba;fill-opacity:1;stroke:none" />
    </g>
    <g
       id="g4302"
       transform="matrix(-0.71744357,0,0,-0.71744357,485.7504,1268.3948)"
       inkscape:transform-center-x="8.8779154"
       inkscape:transform-center-y="6.3477684">
      <path
         style="fill:#7e654b;fill-opacity:1;stroke:none"
         d="m 267.61751,706.87795 8.78677,2.37828 -3.11074,11.62589 -8.8496,-2.43785 z"
         id="path4304"
         inkscape:connector-curvature="0"
         sodipodi:nodetypes="ccccc" />
      <path
         sodipodi:nodetypes="ccccc"
         inkscape:connector-curvature="0"
         id="path4306"
         d="m 268.06394,704.95831 8.78677,2.37828 -0.44222,1.91886 -8.80272,-2.35582 z"
         style="fill:#b3c0ba;fill-opacity:1;stroke:none" />
      <path
         style="fill:#b3c0ba;fill-opacity:1;stroke:none"
         d="m 264.43894,718.44268 8.85708,2.42516 -0.47347,1.78605 -8.92772,-2.37145 z"
         id="path4308"
         inkscape:connector-curvature="0"
         sodipodi:nodetypes="ccccc" />
    </g>
    <path
       style="opacity:1;fill:#b3b3b3;fill-opacity:1;stroke:none"
       d="m 296.91744,880.30974 21.92972,6.49075 -3.15951,11.71959 -21.83048,-5.89012 z"
       id="path4312"
       inkscape:connector-curvature="0"
       sodipodi:nodetypes="ccccc" />
    <path
       transform="matrix(6.6076166,0,0,6.6076166,-609.95527,-1827.7123)"
       d="m 139.5652,411.29517 c 0,0.56137 -0.45508,1.01646 -1.01646,1.01646 -0.56138,0 -1.01647,-0.45509 -1.01647,-1.01646 0,-0.56138 0.45509,-1.01647 1.01647,-1.01647 0.56138,0 1.01646,0.45509 1.01646,1.01647 z"
       sodipodi:ry="1.016466"
       sodipodi:rx="1.016466"
       sodipodi:cy="411.29517"
       sodipodi:cx="138.54874"
       id="path4314"
       style="fill:#c7b474;fill-opacity:1;stroke:none"
       sodipodi:type="arc" />
    <path
       sodipodi:nodetypes="ccccc"
       inkscape:connector-curvature="0"
       id="path4316"
       d="m 310.15403,882.58765 -5.12073,19.10129 -4.20658,-1.21497 4.91785,-19.13463 z"
       style="opacity:1;fill:#c7b474;fill-opacity:1;stroke:none" />
    <path
       sodipodi:type="arc"
       style="fill:#000000;fill-opacity:1;stroke:none"
       id="path4318"
       sodipodi:cx="138.54874"
       sodipodi:cy="411.29517"
       sodipodi:rx="1.016466"
       sodipodi:ry="1.016466"
       d="m 139.5652,411.29517 c 0,0.56137 -0.45508,1.01646 -1.01646,1.01646 -0.56138,0 -1.01647,-0.45509 -1.01647,-1.01646 0,-0.56138 0.45509,-1.01647 1.01647,-1.01647 0.56138,0 1.01646,0.45509 1.01646,1.01647 z"
       transform="matrix(1.0688374,0,0,1.0688374,157.60715,450.05913)" />
    <path
       sodipodi:nodetypes="ccccc"
       inkscape:connector-curvature="0"
       id="path4320"
       d="m 440.01449,650.2935 17.34581,4.68379 -6.11322,23.48933 -17.53175,-4.78621 z"
       style="fill:#bcc5c0;fill-opacity:1;stroke:none" />
    <path
       style="fill:#999999;fill-opacity:1;stroke:none"
       d="m 455.74762,660.19299 7.76953,2.14106 -3.60801,13.5693 -7.45548,-2.39972 z"
       id="path4322"
       inkscape:connector-curvature="0"
       sodipodi:nodetypes="ccccc" />
    <path
       style="opacity:1;fill:#bcc5c0;fill-opacity:1;stroke:none"
       d="m 425.01449,694.7935 46.84581,12.68379 -10.48822,39.36433 -46.78175,-12.91121 3.90906,-14.67634 -5.71245,-1.65057 2.1869,-9.84186 6.21998,1.35465 z"
       id="path4324"
       inkscape:connector-curvature="0"
       sodipodi:nodetypes="ccccccccc" />
    <path
       style="fill:#000000;fill-opacity:1;stroke:none;opacity:0.5"
       d="m 460.56873,709.7455 -17.57619,-4.76221 0.73761,-2.93075 20.51497,5.61577 -3.43759,13.05805 -21.96879,-5.72098 -2.00783,7.14788 22.0293,5.91197 -3.44123,13.21361 -20.41179,-5.52472 0.54216,-2.91771 17.61294,4.77117 0.75443,-3.00879 -17.56848,-4.71644 0.73804,-2.80788 17.60107,4.75924 0.3584,-1.41901 -21.84766,-5.98856 3.35935,-13.07924 22.30492,5.7724 0.30492,-1.47759 -17.69508,-4.60259 0.92928,-3.16416 17.44757,4.84341 z"
       id="path4328"
       inkscape:connector-curvature="0"
       sodipodi:nodetypes="ccccccccccccccccccccccccc" />
    <path
       style="opacity:0.5;fill:#ffdd55;fill-opacity:1;stroke:none"
       d="m 437.52719,697.91965 28.10945,7.85782 -9.90667,39.40718 -28.41077,-8.02964 z"
       id="path4330"
       inkscape:connector-curvature="0"
       sodipodi:nodetypes="ccccc" />
    <path
       sodipodi:nodetypes="cccccccc"
       inkscape:connector-curvature="0"
       id="path4334"
       d="m 268.18924,898.03746 19.16196,4.78434 1.13061,-4.00906 4.72436,1.08469 -25.95549,97.08085 -4.55969,-1.33266 -19.48099,-5.13297 z"
       style="fill:#726b50;fill-opacity:1;stroke:none" />
    <path
       style="opacity:1;fill:#c7b474;fill-opacity:1;stroke:none"
       d="m 268.18924,898.03746 19.16196,4.78434 -1.21314,4.74094 -16.11939,-4.29031 -0.83813,2.8347 16.13061,4.30344 -20.85575,77.98097 -16.18188,-4.44655 -0.83814,2.95969 16.34655,4.5111 -1.09094,4.22984 -19.48099,-5.13297 z"
       id="path4332"
       inkscape:connector-curvature="0"
       sodipodi:nodetypes="ccccccccccccc" />
    <path
       sodipodi:nodetypes="ccccc"
       inkscape:connector-curvature="0"
       id="path4338"
       d="m 411.27903,922.58765 -5.12073,18.47629 -17.83158,-4.83997 4.54285,-18.63463 z"
       style="fill:#d3bc5f;fill-opacity:1;stroke:none" />
    <path
       style="opacity:1;fill:#c7b474;fill-opacity:1;stroke:none"
       d="m 393.27903,917.71265 -5.24573,20.72629 -19.83158,-5.96497 5.04285,-20.13463 z"
       id="path4336"
       inkscape:connector-curvature="0"
       sodipodi:nodetypes="ccccc" />
  </g>
</svg>
